<svg xmlns="http://www.w3.org/2000/svg" xmlns:xlink="http://www.w3.org/1999/xlink" xmlns:sketch="http://www.bohemiancoding.com/sketch/ns" width="38" height="34" viewBox="0 0 38 34" version="1.1">
  <g id="Page-1" stroke="none" stroke-width="1" fill="none" fill-rule="evenodd" sketch:type="MSPage">
    <g id="React.js_logo" sketch:type="MSLayerGroup" transform="translate(1.000000, 1.000000)">
      <ellipse id="Oval" fill="#00D8FF" sketch:type="MSShapeGroup" cx="18" cy="15.94" rx="3.35" ry="3.37"/>
      <path d="M18 9.1C22.5 9.1 26.68 9.75 29.83 10.84 33.63 12.15 35.96 14.14 35.96 15.94 35.96 17.82 33.49 19.93 29.41 21.29 26.33 22.32 22.27 22.85 18 22.85 13.62 22.85 9.48 22.35 6.36 21.28 2.42 19.92 0.04 17.78 0.04 15.94 0.04 14.15 2.27 12.18 6.01 10.87 9.18 9.76 13.46 9.1 18 9.1L18 9.1ZM12.07 12.54C14.32 8.63 16.97 5.31 19.48 3.12 22.51 0.47 25.39-0.57 26.95 0.33 28.56 1.27 29.15 4.48 28.29 8.7 27.63 11.9 26.07 15.69 23.93 19.41 21.75 23.22 19.24 26.58 16.76 28.75 13.62 31.51 10.59 32.51 9 31.59 7.46 30.69 6.87 27.77 7.61 23.85 8.23 20.55 9.8 16.49 12.07 12.54L12.07 12.54ZM12.08 19.42C9.82 15.51 8.29 11.55 7.65 8.27 6.88 4.31 7.42 1.28 8.97 0.38 10.59-0.56 13.65 0.53 16.87 3.39 19.29 5.56 21.79 8.82 23.93 12.53 26.12 16.34 27.76 20.19 28.4 23.44 29.21 27.54 28.56 30.68 26.97 31.6 25.43 32.5 22.61 31.55 19.61 28.95 17.07 26.76 14.35 23.37 12.08 19.42L12.08 19.42Z" id="Shape" stroke="#00D8FF" stroke-width="1.6" sketch:type="MSShapeGroup"/>
    </g>
  </g>
</svg>
